<?xml version="1.0" encoding="UTF-8"?>
<!DOCTYPE svg PUBLIC "-//W3C//DTD SVG 1.1//EN" "http://www.w3.org/Graphics/SVG/1.1/DTD/svg11.dtd">
<svg version="1.1" xmlns="http://www.w3.org/2000/svg" xmlns:xlink="http://www.w3.org/1999/xlink" x="0" y="0" width="612" height="792" viewBox="0, 0, 612, 792">
  <g id="Layer_1">
    <g id="배경">
      <path d="M99.5,271.5 L513.5,271.5 C521.784,271.5 528.5,278.216 528.5,286.5 L528.5,478.5 C528.5,486.784 521.784,493.5 513.5,493.5 L99.5,493.5 C91.216,493.5 84.5,486.784 84.5,478.5 L84.5,286.5 C84.5,278.216 91.216,271.5 99.5,271.5 z" fill="#000000"/>
      <path d="M99.5,271.5 L513.5,271.5 C521.784,271.5 528.5,278.216 528.5,286.5 L528.5,478.5 C528.5,486.784 521.784,493.5 513.5,493.5 L99.5,493.5 C91.216,493.5 84.5,486.784 84.5,478.5 L84.5,286.5 C84.5,278.216 91.216,271.5 99.5,271.5 z" fill-opacity="0" stroke="#000000" stroke-width="1"/>
    </g>
    <path d="M302.631,457.675 Q305.713,454.409 307.691,452.293 Q309.669,450.177 310.589,449.119 Q311.049,446.359 312.981,446.359 Q313.441,446.359 313.993,446.635 L314.131,447.049 Q314.039,447.325 314.039,447.877 Q314.039,448.429 314.361,449.395 Q315.051,451.603 315.051,453.121 Q315.051,457.399 309.117,461.125 Q309.669,461.309 310.313,461.309 Q312.843,461.309 317.167,457.537 L317.167,459.055 Q313.671,462.413 311.555,463.609 Q309.577,464.759 307.829,464.759 Q306.127,464.759 304.517,463.287 Q302.999,461.907 302.769,460.573 Q302.631,459.285 302.631,457.675 z M310.589,451.511 Q309.807,452.431 308.335,453.926 Q306.863,455.421 304.655,457.537 Q305.897,457.767 306.357,458.227 Q306.955,458.779 307.875,460.251 Q310.175,459.331 310.796,457.353 Q311.417,455.375 310.589,451.511 z" fill="#FFFFFF"/>
    <path d="M327.103,447.509 Q326.413,447.509 325.999,447.072 Q325.585,446.635 325.585,445.807 Q325.585,445.025 326.551,443.829 Q327.517,442.633 328.345,442.633 Q330.047,442.633 330.047,444.381 Q330.047,445.163 329.127,446.359 Q328.253,447.509 327.103,447.509 z M328.667,457.583 L328.667,459.239 Q324.297,464.897 321.261,464.897 Q319.513,464.897 318.639,462.965 Q317.765,461.079 317.765,459.101 Q317.765,455.973 320.341,452.569 Q322.963,449.165 325.125,449.165 Q326.505,449.165 326.505,450.223 Q326.505,450.591 325.815,452.063 Q325.125,453.535 323.331,455.329 Q322.411,456.249 321.905,456.824 Q321.399,457.399 321.215,457.629 Q320.893,458.089 320.893,458.917 Q320.893,459.699 321.491,460.274 Q322.089,460.849 323.101,460.849 Q324.113,460.849 325.424,460.044 Q326.735,459.239 328.667,457.583 z" fill="#FFFFFF"/>
    <path d="M339.201,454.363 Q336.257,455.927 331.979,461.677 Q330.645,463.287 330.323,463.609 Q330.001,463.931 329.587,463.931 Q328.759,463.931 328.207,462.413 Q327.655,460.895 327.655,459.331 Q327.655,457.767 327.931,456.985 Q328.115,456.571 328.529,455.858 Q328.943,455.145 329.633,454.133 Q331.013,452.063 331.956,451.235 Q332.899,450.407 333.773,450.407 Q335.153,450.407 335.383,451.028 Q335.613,451.649 335.107,452.247 L334.325,453.121 Q330.783,457.077 330.783,458.227 Q330.783,458.871 331.151,458.871 Q331.519,458.871 332.255,457.997 Q334.463,455.375 336.234,453.604 Q338.005,451.833 339.339,450.913 Q342.053,449.027 342.927,449.027 Q343.249,449.027 343.617,450.131 Q343.801,450.683 343.916,451.074 Q344.031,451.465 343.985,451.833 Q343.939,452.201 343.709,452.592 Q343.479,452.983 343.019,453.535 Q340.121,456.617 339.339,458.618 Q338.557,460.619 339.845,460.619 Q340.903,460.619 344.813,457.491 L344.813,459.055 Q343.525,460.389 342.398,461.47 Q341.271,462.551 340.259,463.379 Q339.293,464.207 338.534,464.575 Q337.775,464.943 337.223,464.989 Q336.671,465.035 336.303,464.851 Q335.935,464.667 335.705,464.299 Q335.291,463.609 335.291,462.551 Q335.291,461.493 336.119,459.745 Q336.579,458.825 337.338,457.491 Q338.097,456.157 339.201,454.363 z" fill="#FFFFFF"/>
    <path d="M358.613,457.629 L358.613,459.147 Q357.693,460.067 356.566,461.102 Q355.439,462.137 354.105,463.287 Q351.437,465.541 349.367,465.541 Q347.343,465.541 346.055,463.333 Q344.813,461.125 344.813,458.641 Q344.813,457.215 345.273,456.295 Q345.733,455.375 347.895,453.075 Q350.057,450.821 352.265,449.487 Q354.427,448.153 355.347,448.153 Q356.267,448.153 356.796,448.659 Q357.325,449.165 357.325,449.993 Q357.325,451.465 355.807,453.443 Q354.335,455.467 353.507,455.467 Q352.909,455.467 352.909,454.823 L352.955,454.317 Q352.955,453.857 352.725,453.857 Q352.449,453.857 350.609,455.237 Q348.723,456.571 348.079,457.353 Q347.435,458.135 347.435,458.917 Q347.481,460.297 348.263,461.079 Q349.045,461.861 350.471,461.838 Q351.897,461.815 353.944,460.826 Q355.991,459.837 358.613,457.629 z" fill="#FFFFFF"/>
    <path d="M361.419,458.411 L361.419,458.963 Q361.419,460.297 362.04,461.033 Q362.661,461.769 364.041,461.769 Q365.467,461.769 367.192,460.711 Q368.917,459.653 371.263,457.583 L371.263,458.963 Q366.019,465.265 361.971,465.265 Q359.901,465.265 358.774,463.632 Q357.647,461.999 357.647,459.469 Q357.647,456.847 359.349,454.317 Q361.097,451.695 363.857,449.993 Q366.617,448.199 368.641,448.199 Q369.745,448.199 370.389,448.705 Q371.033,449.211 371.033,450.131 Q371.033,454.455 361.419,458.411 z M361.649,456.939 Q364.731,455.697 366.295,453.903 Q367.905,452.017 367.905,451.189 Q367.905,450.683 367.399,450.683 Q366.341,450.683 364.225,452.615 Q362.155,454.409 361.649,456.939 z" fill="#FFFFFF"/>
    <path d="M389.111,444.933 Q393.481,444.979 393.481,446.037 Q393.481,446.267 392.975,446.497 Q392.469,446.727 390.077,447.187 Q387.777,447.647 387.271,447.647 Q386.719,447.647 386.581,447.026 Q386.443,446.405 386.581,445.462 Q386.719,444.519 387.087,443.392 Q387.455,442.265 387.961,441.299 Q388.697,439.919 389.433,439.321 Q390.261,438.631 392.469,437.941 Q394.585,437.205 397.069,436.791 Q399.369,436.331 400.795,436.331 Q402.037,436.331 402.589,436.561 Q403.049,436.745 403.785,438.585 Q404.521,440.425 404.521,442.541 Q404.521,444.657 403.371,446.313 Q402.267,447.969 400.381,449.303 Q399.461,449.947 398.012,450.89 Q396.563,451.833 394.631,453.029 Q385.247,458.871 384.603,460.113 Q385.661,460.021 387.133,459.814 Q388.605,459.607 390.491,459.239 Q394.263,458.503 396.977,457.859 Q399.645,457.169 399.737,457.169 Q400.151,457.169 400.151,457.721 Q400.151,459.101 398.955,460.987 Q396.517,464.621 386.719,464.621 Q385.201,464.621 384.373,464.299 Q383.453,463.931 382.901,462.275 Q382.349,460.573 382.349,459.791 Q382.303,459.193 382.947,458.066 Q383.591,456.939 384.764,455.605 Q385.937,454.271 387.616,452.868 Q389.295,451.465 391.365,450.315 L396.149,447.555 Q397.207,446.911 397.874,446.543 Q398.541,446.175 398.817,445.991 Q399.093,445.853 399.507,445.508 Q399.921,445.163 400.358,444.772 Q400.795,444.381 401.186,443.944 Q401.577,443.507 401.807,443.139 Q402.589,441.943 402.083,441.253 Q401.577,440.563 400.381,440.563 Q398.173,440.563 394.815,441.759 Q391.549,442.909 389.111,444.933 z" fill="#FFFFFF"/>
    <path d="M422.185,438.585 Q423.289,439.091 423.749,440.149 Q424.209,441.207 424.209,443.277 Q424.209,448.153 421.587,453.305 Q419.011,458.411 415.285,461.539 Q411.559,464.621 408.868,464.621 Q406.177,464.621 404.337,462.367 Q402.543,460.113 402.543,456.295 Q402.543,452.431 405.349,447.693 Q406.775,445.301 408.5,443.323 Q410.225,441.345 412.295,439.781 Q416.481,436.653 419.517,436.653 Q421.955,436.653 422.185,438.585 z M417.033,443.001 L417.815,441.345 Q413.077,443.461 409.351,448.935 Q405.671,454.409 405.671,458.227 Q405.671,460.849 407.718,460.849 Q409.765,460.849 413.491,457.767 Q417.171,454.685 419.609,450.591 Q422.047,446.405 422.047,443.047 Q422.047,440.885 420.483,440.885 Q419.011,440.885 417.033,443.001 z" fill="#FFFFFF"/>
    <path d="M426.923,443.185 L426.923,441.345 Q431.431,437.389 435.019,435.503 Q435.617,436.469 435.893,437.228 Q436.169,437.987 436.215,438.654 Q436.261,439.321 436.146,439.919 Q436.031,440.517 435.847,441.115 Q435.525,442.173 433.133,447.049 Q430.833,451.833 429.269,456.433 Q427.705,461.033 427.889,461.861 Q428.211,463.333 428.211,463.908 Q428.211,464.483 427.843,464.575 Q427.015,464.575 425.451,463.563 Q423.887,462.551 423.887,460.711 Q423.887,457.813 426.233,451.925 Q427.429,448.981 428.924,446.129 Q430.419,443.277 432.259,440.379 Q429.729,441.391 426.923,443.185 z" fill="#FFFFFF"/>
    <path d="M439.389,443.185 L439.389,441.345 Q443.897,437.389 447.485,435.503 Q448.083,436.469 448.359,437.228 Q448.635,437.987 448.681,438.654 Q448.727,439.321 448.612,439.919 Q448.497,440.517 448.313,441.115 Q447.991,442.173 445.599,447.049 Q443.299,451.833 441.735,456.433 Q440.171,461.033 440.355,461.861 Q440.677,463.333 440.677,463.908 Q440.677,464.483 440.309,464.575 Q439.481,464.575 437.917,463.563 Q436.353,462.551 436.353,460.711 Q436.353,457.813 438.699,451.925 Q439.895,448.981 441.39,446.129 Q442.885,443.277 444.725,440.379 Q442.195,441.391 439.389,443.185 z" fill="#FFFFFF"/>
    <g id="RORLAB">
      <g>
        <path d="M255.478,385.233 Q253.843,385.567 252.636,386.774 Q251.428,387.982 249.682,391.474 L239.652,411.423 L251.688,411.423 L258.375,397.418 Q258.672,396.823 259.155,395.783 Q262.09,389.505 266.065,389.505 L269.557,389.505 L269.557,411.423 L280.516,411.423 L280.516,355.96 L264.69,355.96 Q253.992,355.96 249.329,359.749 Q244.667,363.538 244.667,372.082 Q244.667,377.803 247.453,381.184 Q250.24,384.564 255.478,385.233 z M269.557,365.172 L269.557,380.292 L264.393,380.292 Q259.898,380.292 257.948,378.527 Q255.998,376.763 255.998,372.714 Q255.998,368.664 257.929,366.918 Q259.861,365.172 264.393,365.172 z" fill="#FFFFFF"/>
        <path d="M255.478,385.233 Q253.843,385.567 252.636,386.774 Q251.428,387.982 249.682,391.474 L239.652,411.423 L251.688,411.423 L258.375,397.418 Q258.672,396.823 259.155,395.783 Q262.09,389.505 266.065,389.505 L269.557,389.505 L269.557,411.423 L280.516,411.423 L280.516,355.96 L264.69,355.96 Q253.992,355.96 249.329,359.749 Q244.667,363.538 244.667,372.082 Q244.667,377.803 247.453,381.184 Q250.24,384.564 255.478,385.233 z M269.557,365.172 L269.557,380.292 L264.393,380.292 Q259.898,380.292 257.948,378.527 Q255.998,376.763 255.998,372.714 Q255.998,368.664 257.929,366.918 Q259.861,365.172 264.393,365.172 z" fill-opacity="0" stroke="#FFFFFF" stroke-width="4"/>
      </g>
      <g>
        <path d="M307.66,364.801 Q303.462,364.801 301.53,369.277 Q299.599,373.754 299.599,383.747 Q299.599,393.703 301.53,398.179 Q303.462,402.656 307.66,402.656 Q311.895,402.656 313.827,398.179 Q315.758,393.703 315.758,383.747 Q315.758,373.754 313.827,369.277 Q311.895,364.801 307.66,364.801 z M288.194,383.747 Q288.194,369.519 293.116,362.238 Q298.038,354.957 307.66,354.957 Q317.319,354.957 322.241,362.238 Q327.163,369.519 327.163,383.747 Q327.163,397.938 322.241,405.219 Q317.319,412.5 307.66,412.5 Q298.038,412.5 293.116,405.219 Q288.194,397.938 288.194,383.747 z" fill="#FFFFFF"/>
        <path d="M307.66,364.801 Q303.462,364.801 301.53,369.277 Q299.599,373.754 299.599,383.747 Q299.599,393.703 301.53,398.179 Q303.462,402.656 307.66,402.656 Q311.895,402.656 313.827,398.179 Q315.758,393.703 315.758,383.747 Q315.758,373.754 313.827,369.277 Q311.895,364.801 307.66,364.801 z M288.194,383.747 Q288.194,369.519 293.116,362.238 Q298.038,354.957 307.66,354.957 Q317.319,354.957 322.241,362.238 Q327.163,369.519 327.163,383.747 Q327.163,397.938 322.241,405.219 Q317.319,412.5 307.66,412.5 Q298.038,412.5 293.116,405.219 Q288.194,397.938 288.194,383.747 z" fill-opacity="0" stroke="#FFFFFF" stroke-width="4"/>
      </g>
      <g>
        <path d="M360.56,385.233 Q362.194,385.567 363.402,386.774 Q364.609,387.982 366.355,391.474 L376.385,411.423 L364.349,411.423 L357.662,397.418 Q357.365,396.823 356.882,395.783 Q353.947,389.505 349.972,389.505 L346.48,389.505 L346.48,411.423 L335.522,411.423 L335.522,355.96 L351.347,355.96 Q362.046,355.96 366.708,359.749 Q371.37,363.538 371.37,372.082 Q371.37,377.803 368.584,381.184 Q365.798,384.564 360.56,385.233 z M346.48,365.172 L346.48,380.292 L351.644,380.292 Q356.139,380.292 358.089,378.527 Q360.04,376.763 360.04,372.714 Q360.04,368.664 358.108,366.918 Q356.176,365.172 351.644,365.172 z" fill="#FFFFFF"/>
        <path d="M360.56,385.233 Q362.194,385.567 363.402,386.774 Q364.609,387.982 366.355,391.474 L376.385,411.423 L364.349,411.423 L357.662,397.418 Q357.365,396.823 356.882,395.783 Q353.947,389.505 349.972,389.505 L346.48,389.505 L346.48,411.423 L335.522,411.423 L335.522,355.96 L351.347,355.96 Q362.046,355.96 366.708,359.749 Q371.37,363.538 371.37,372.082 Q371.37,377.803 368.584,381.184 Q365.798,384.564 360.56,385.233 z M346.48,365.172 L346.48,380.292 L351.644,380.292 Q356.139,380.292 358.089,378.527 Q360.04,376.763 360.04,372.714 Q360.04,368.664 358.108,366.918 Q356.176,365.172 351.644,365.172 z" fill-opacity="0" stroke="#FFFFFF" stroke-width="4"/>
      </g>
      <path d="M384.244,410.923 L384.244,355.46 L395.203,355.46 L395.203,401.264 L418.643,401.264 L418.643,410.923 z" fill="#EE0000"/>
      <path d="M444.573,365.49 L439.41,388.188 L449.774,388.188 z M437.887,355.46 L451.297,355.46 L466.268,410.923 L455.309,410.923 L451.892,397.215 L437.218,397.215 L433.874,410.923 L422.916,410.923 z" fill="#EE0000"/>
      <path d="M482.725,385.736 L482.725,402.156 L490.006,402.156 Q495.244,402.156 497.343,400.372 Q499.442,398.589 499.442,394.169 Q499.442,389.674 497.25,387.705 Q495.059,385.736 490.006,385.736 z M482.725,364.115 L482.725,377.006 L490.006,377.006 Q494.167,377.006 495.931,375.52 Q497.696,374.034 497.696,370.616 Q497.696,367.199 495.894,365.657 Q494.093,364.115 490.006,364.115 z M472.138,355.385 L490.006,355.385 Q499.256,355.385 503.918,358.896 Q508.581,362.406 508.581,369.39 Q508.581,374.74 505.832,377.749 Q503.083,380.758 497.77,381.241 Q504.123,381.872 507.336,385.513 Q510.55,389.154 510.55,395.692 Q510.55,403.716 505.72,407.319 Q500.891,410.923 490.006,410.923 L472.138,410.923 z" fill="#EE0000"/>
    </g>
    <g id="Rail">
      <g>
        <path d="M279.248,291.349 C283.478,293.655 287.521,296.316 291.305,299.301 L290.553,305.585 C286.945,303.091 282.94,301.284 278.969,299.474 L279.248,291.349 z" fill="#D11D00"/>
        <path d="M279.248,291.349 C283.478,293.655 287.521,296.316 291.305,299.301 L290.553,305.585 C286.945,303.091 282.94,301.284 278.969,299.474 L279.248,291.349 z" fill-opacity="0" stroke="#D11D00" stroke-width="1" stroke-linecap="round" stroke-linejoin="round"/>
      </g>
      <g>
        <path d="M278.126,324.035 C283.015,324.807 279.655,324.163 288.013,326.79 L287.56,330.574 C286.338,330.304 287.002,330.446 285.569,330.152 C280.861,329.437 283.401,329.671 277.936,329.592 L278.126,324.035 z" fill="#D11D00"/>
        <path d="M278.126,324.035 C283.015,324.807 279.655,324.163 288.013,326.79 L287.56,330.574 C286.338,330.304 287.002,330.446 285.569,330.152 C280.861,329.437 283.401,329.671 277.936,329.592 L278.126,324.035 z" fill-opacity="0" stroke="#D11D00" stroke-width="1" stroke-linecap="round" stroke-linejoin="round"/>
      </g>
      <g>
        <path d="M256.93,324.799 L259.61,334.237 C256.568,335.687 253.934,337.767 251.358,339.904 L246.998,329.31 C251.042,327.022 249.059,328.051 252.931,326.192 C254.246,325.674 255.578,325.21 256.93,324.799 z" fill="#D11D00"/>
        <path d="M256.93,324.799 L259.61,334.237 C256.568,335.687 253.934,337.767 251.358,339.904 L246.998,329.31 C251.042,327.022 249.059,328.051 252.931,326.192 C254.246,325.674 255.578,325.21 256.93,324.799 z" fill-opacity="0" stroke="#D11D00" stroke-width="1" stroke-linecap="round" stroke-linejoin="round"/>
      </g>
      <g>
        <path d="M234.413,278.423 C241.279,278.751 238.09,278.436 243.993,279.247 L247.188,290.496 C241.841,289.905 236.402,289.946 231.063,290.59 L226.214,278.807 C229.607,278.544 227.839,278.681 231.517,278.396 L234.413,278.423 z" fill="#D11D00"/>
        <path d="M234.413,278.423 C241.279,278.751 238.09,278.436 243.993,279.247 L247.188,290.496 C241.841,289.905 236.402,289.946 231.063,290.59 L226.214,278.807 C229.607,278.544 227.839,278.681 231.517,278.396 L234.413,278.423 z" fill-opacity="0" stroke="#D11D00" stroke-width="1" stroke-linecap="round" stroke-linejoin="round"/>
      </g>
      <g>
        <path d="M196.642,286.01 L204.79,298.16 C199.998,300.185 195.625,303.009 191.313,305.883 L181.501,293.226 C186.382,290.476 191.328,287.871 196.642,286.01 z" fill="#D11D00"/>
        <path d="M196.642,286.01 L204.79,298.16 C199.998,300.185 195.625,303.009 191.313,305.883 L181.501,293.226 C186.382,290.476 191.328,287.871 196.642,286.01 z" fill-opacity="0" stroke="#D11D00" stroke-width="1" stroke-linecap="round" stroke-linejoin="round"/>
      </g>
      <g>
        <path d="M233.164,340.47 L241.061,352.245 C238.852,355.599 237.154,359.236 235.503,362.884 L225.728,350.275 C227.958,346.838 230.266,343.396 233.164,340.47 z" fill="#D11D00"/>
        <path d="M233.164,340.47 L241.061,352.245 C238.852,355.599 237.154,359.236 235.503,362.884 L225.728,350.275 C227.958,346.838 230.266,343.396 233.164,340.47 z" fill-opacity="0" stroke="#D11D00" stroke-width="1" stroke-linecap="round" stroke-linejoin="round"/>
      </g>
      <g>
        <path d="M215.991,368.613 L229.94,379.757 C228.551,384.337 228.152,389.118 227.692,393.848 L210.722,381.429 C212.394,377.124 214.044,372.803 215.991,368.613 z" fill="#D11D00"/>
        <path d="M215.991,368.613 L229.94,379.757 C228.551,384.337 228.152,389.118 227.692,393.848 L210.722,381.429 C212.394,377.124 214.044,372.803 215.991,368.613 z" fill-opacity="0" stroke="#D11D00" stroke-width="1" stroke-linecap="round" stroke-linejoin="round"/>
      </g>
      <g>
        <path d="M151.236,316.884 L166.069,328.734 C162.446,332.726 159.213,337.068 156.274,341.586 L140.239,329.852 L143,326 C148.115,319.967 145.382,323.017 151.236,316.884 z" fill="#D11D00"/>
        <path d="M151.236,316.884 L166.069,328.734 C162.446,332.726 159.213,337.068 156.274,341.586 L140.239,329.852 L143,326 C148.115,319.967 145.382,323.017 151.236,316.884 z" fill-opacity="0" stroke="#D11D00" stroke-width="1" stroke-linecap="round" stroke-linejoin="round"/>
      </g>
      <g>
        <path d="M118.845,368.232 L138.128,376.032 C135.766,381.352 133.866,386.861 132.026,392.379 L112.33,385.558 C114.147,379.66 116.3,373.855 118.845,368.232 z" fill="#D11D00"/>
        <path d="M118.845,368.232 L138.128,376.032 C135.766,381.352 133.866,386.861 132.026,392.379 L112.33,385.558 C114.147,379.66 116.3,373.855 118.845,368.232 z" fill-opacity="0" stroke="#D11D00" stroke-width="1" stroke-linecap="round" stroke-linejoin="round"/>
      </g>
      <g>
        <path d="M209.557,404.923 L227.208,412.062 C227.26,416.66 227.687,421.267 228.514,425.793 L210.361,419.506 C209.578,409.345 209.825,414.207 209.557,404.923 z" fill="#D11D00"/>
        <path d="M209.557,404.923 L227.208,412.062 C227.26,416.66 227.687,421.267 228.514,425.793 L210.361,419.506 C209.578,409.345 209.825,414.207 209.557,404.923 z" fill-opacity="0" stroke="#D11D00" stroke-width="1" stroke-linecap="round" stroke-linejoin="round"/>
      </g>
      <g>
        <path d="M215.954,448.759 L234.62,451.509 C236.155,456.647 238.082,461.652 240.125,466.605 L220.867,464.732 C218.882,459.521 217.315,454.161 215.954,448.759 z" fill="#D11D00"/>
        <path d="M215.954,448.759 L234.62,451.509 C236.155,456.647 238.082,461.652 240.125,466.605 L220.867,464.732 C218.882,459.521 217.315,454.161 215.954,448.759 z" fill-opacity="0" stroke="#D11D00" stroke-width="1" stroke-linecap="round" stroke-linejoin="round"/>
      </g>
      <g>
        <path d="M100.646,431.773 L121.005,434.773 C118.998,445.33 120.145,438.703 118.003,454.724 L97.507,452.73 C98.443,445.732 99.294,438.71 100.646,431.773 z" fill="#D11D00"/>
        <path d="M100.646,431.773 L121.005,434.773 C118.998,445.33 120.145,438.703 118.003,454.724 L97.507,452.73 C98.443,445.732 99.294,438.71 100.646,431.773 z" fill-opacity="0" stroke="#D11D00" stroke-width="1" stroke-linecap="round" stroke-linejoin="round"/>
      </g>
      <g>
        <path d="M299.5,327.833 L303.833,320.833 C303.833,320.833 274.144,290.77 237.859,294.833 C199.167,299.167 183.047,318.026 175.833,325.833 C147.5,356.5 122.5,412.5 122.833,482.167 L221.5,482.167 C221.5,482.167 189.167,414.833 212.5,360.957 C227.367,326.628 270.5,303.167 299.5,327.833 z" fill="#C40000"/>
        <path d="M299.5,327.833 L303.833,320.833 C303.833,320.833 274.144,290.77 237.859,294.833 C199.167,299.167 183.047,318.026 175.833,325.833 C147.5,356.5 122.5,412.5 122.833,482.167 L221.5,482.167 C221.5,482.167 189.167,414.833 212.5,360.957 C227.367,326.628 270.5,303.167 299.5,327.833 z" fill-opacity="0" stroke="#C40000" stroke-width="3" stroke-linecap="round" stroke-linejoin="round"/>
      </g>
    </g>
  </g>
</svg>
